{
  "accessors": [
    {
      "bufferView": 1,
      "componentType": 5126,
      "count": 2932,
      "max": [
        3437.47021484375,
        222.30262756347656,
        2553.54296875
      ],
      "min": [
        -3298.809814453125,
        -96.65069580078125,
        -1286.611572265625
      ],
      "type": "VEC3"
    },
    {
      "bufferView": 1,
      "byteOffset": 35184,
      "componentType": 5126,
      "count": 2932,
      "max": [
        1,
        1,
        1
      ],
      "min": [
        -1,
        -1,
        -1
      ],
      "type": "VEC3"
    },
    {
      "bufferView": 2,
      "componentType": 5126,
      "count": 2932,
      "max": [
        1,
        5.8774435274244752e-07,
        1,
        1
      ],
      "min": [
        -1,
        -6.4206460592686199e-07,
        -1,
        1
      ],
      "type": "VEC4"
    },
    {
      "bufferView": 0,
      "componentType": 5125,
      "count": 4542,
      "max": [
        2931
      ],
      "min": [
        0
      ],
      "type": "SCALAR"
    },
    {
      "bufferView": 1,
      "byteOffset": 70368,
      "componentType": 5126,
      "count": 276,
      "max": [
        3399.169677734375,
        222.30267333984375,
        2533.701416015625
      ],
      "min": [
        -3275.378662109375,
        -96.65069580078125,
        -1258.3907470703125
      ],
      "type": "VEC3"
    },
    {
      "bufferView": 1,
      "byteOffset": 73680,
      "componentType": 5126,
      "count": 276,
      "max": [
        1,
        1,
        1
      ],
      "min": [
        -1,
        -1,
        -1
      ],
      "type": "VEC3"
    },
    {
      "bufferView": 2,
      "byteOffset": 46912,
      "componentType": 5126,
      "count": 276,
      "max": [
        1,
        1,
        1,
        1
      ],
      "min": [
        -8.0358751120002125e-07,
        -1.7374688354721002e-07,
        -1,
        -1
      ],
      "type": "VEC4"
    },
    {
      "bufferView": 0,
      "byteOffset": 18168,
      "componentType": 5125,
      "count": 624,
      "max": [
        275
      ],
      "min": [
        0
      ],
      "type": "SCALAR"
    }
  ],
  "asset": {
    "extras": {
      "author": "rustic.orcullo13 (https://sketchfab.com/rustic.orcullo13)",
      "license": "CC-BY-4.0 (http://creativecommons.org/licenses/by/4.0/)",
      "source": "https://sketchfab.com/models/df5bc1a6306243b8880b4ce2520633c3",
      "title": "Interior"
    },
    "generator": "Sketchfab-3.18.6",
    "version": "2.0"
  },
  "bufferViews": [
    {
      "buffer": 0,
      "byteLength": 20664,
      "byteOffset": 0,
      "name": "floatBufferViews",
      "target": 34963
    },
    {
      "buffer": 0,
      "byteLength": 76992,
      "byteOffset": 20664,
      "byteStride": 12,
      "name": "floatBufferViews",
      "target": 34962
    },
    {
      "buffer": 0,
      "byteLength": 51328,
      "byteOffset": 97656,
      "byteStride": 16,
      "name": "floatBufferViews",
      "target": 34962
    }
  ],
  "buffers": [
    {
      "byteLength": 148984,
      "uri": "scene.bin"
    }
  ],
  "materials": [
    {
      "doubleSided": true,
      "emissiveFactor": [
        0,
        0,
        0
      ],
      "name": "Wall_Mat",
      "pbrMetallicRoughness": {
        "baseColorFactor": [
          0.5,
          0.5,
          0.5,
          1
        ],
        "metallicFactor": 0.5,
        "roughnessFactor": 0.5
      }
    },
    {
      "alphaMode": "BLEND",
      "doubleSided": true,
      "emissiveFactor": [
        0,
        0,
        0
      ],
      "name": "Divider_Mat",
      "pbrMetallicRoughness": {
        "baseColorFactor": [
          0.5,
          0.5,
          0.5,
          0.65000000000000002
        ],
        "metallicFactor": 1,
        "roughnessFactor": 0.14999999999999999
      }
    }
  ],
  "meshes": [
    {
      "name": "Wall_Wall_Mat_0",
      "primitives": [
        {
          "attributes": {
            "NORMAL": 1,
            "POSITION": 0,
            "TANGENT": 2
          },
          "indices": 3,
          "material": 0,
          "mode": 4
        }
      ]
    },
    {
      "name": "Dividers_Divider_Mat_0",
      "primitives": [
        {
          "attributes": {
            "NORMAL": 5,
            "POSITION": 4,
            "TANGENT": 6
          },
          "indices": 7,
          "material": 1,
          "mode": 4
        }
      ]
    }
  ],
  "nodes": [
    {
      "children": [
        1
      ],
      "name": "RootNode (gltf orientation matrix)",
      "rotation": [
        -0.70710678118654746,
        -0,
        -0,
        0.70710678118654757
      ]
    },
    {
      "children": [
        2
      ],
      "name": "RootNode (model correction matrix)"
    },
    {
      "children": [
        3
      ],
      "matrix": [
        1,
        0,
        0,
        0,
        0,
        0,
        1,
        0,
        0,
        -1,
        0,
        0,
        0,
        0,
        0,
        1
      ],
      "name": "368b0809fdb44437afd735948f8e27fe.fbx"
    },
    {
      "children": [
        4
      ],
      "name": "RootNode"
    },
    {
      "children": [
        5,
        7
      ],
      "matrix": [
        458.52615356445312,
        0,
        0,
        0,
        0,
        458.52615356445312,
        0,
        0,
        0,
        0,
        458.52615356445312,
        0,
        -160.29367065429688,
        -96.65069580078125,
        0,
        1
      ],
      "name": "Interior"
    },
    {
      "children": [
        6
      ],
      "matrix": [
        0.0021809006575495005,
        0,
        0,
        0,
        0,
        0.0021809006575495005,
        0,
        0,
        0,
        0,
        0.0021809006575495005,
        0,
        0.34958457946777344,
        0.21078558266162872,
        0,
        1
      ],
      "name": "Wall"
    },
    {
      "mesh": 0,
      "name": "Wall_Wall_Mat_0"
    },
    {
      "children": [
        8
      ],
      "matrix": [
        0.0021809006575495005,
        0,
        0,
        0,
        0,
        0.0021809006575495005,
        0,
        0,
        0,
        0,
        0.0021809006575495005,
        0,
        0.34958457946777344,
        0.21078558266162872,
        0,
        1
      ],
      "name": "Dividers"
    },
    {
      "mesh": 1,
      "name": "Dividers_Divider_Mat_0"
    }
  ],
  "scene": 0,
  "scenes": [
    {
      "name": "OSG_Scene",
      "nodes": [
        0
      ]
    }
  ]
}

